<svg width="24" height="24" viewBox="0 0 24 24" fill="none" xmlns="http://www.w3.org/2000/svg">
<path d="M8.1319 2L4.4199 8.496H2.9999C2.84619 8.49617 2.69459 8.53173 2.55685 8.59993C2.4191 8.66813 2.29891 8.76714 2.2056 8.88927C2.11228 9.0114 2.04834 9.15339 2.01874 9.30421C1.98914 9.45504 1.99467 9.61065 2.0349 9.759L4.8339 20.022C4.94992 20.4451 5.20155 20.8184 5.55019 21.0846C5.89883 21.3509 6.32521 21.4954 6.7639 21.496H17.2369C18.1349 21.496 18.9289 20.891 19.1669 20.021L21.9659 9.758C22.0066 9.6096 22.0124 9.4538 21.983 9.30277C21.9535 9.15174 21.8895 9.00958 21.7959 8.88739C21.7024 8.76519 21.5819 8.66629 21.4438 8.59839C21.3057 8.5305 21.1538 8.49545 20.9999 8.496H19.5799L15.8679 2L14.1319 2.992L17.2769 8.496H6.7229L9.8679 2.992L8.1319 2ZM13.9999 12.496H15.9999V17.496H13.9999V12.496ZM7.9999 12.496H9.9999V17.496H7.9999V12.496Z" fill="black"/>
<rect x="7" y="11.4961" width="10" height="7" fill="black"/>
</svg>
